<?xml version="1.0" standalone="no"?><!DOCTYPE svg PUBLIC "-//W3C//DTD SVG 1.1//EN" "http://www.w3.org/Graphics/SVG/1.1/DTD/svg11.dtd"><svg t="1496212510946" class="icon" style="" viewBox="0 0 1024 1024" version="1.1" xmlns="http://www.w3.org/2000/svg" p-id="2307" xmlns:xlink="http://www.w3.org/1999/xlink" width="200" height="200"><defs><style type="text/css"></style></defs><path d="M948.948 382.295c-14.63-14.44-38.165-14.366-52.644 0.228l-381.475 384.951-386.797-383.313c-14.628-14.484-38.16-14.376-52.683 0.22-14.488 14.633-14.375 38.204 0.22 52.691l411.109 407.37c0.634 0.629 1.453 0.775 2.087 1.374 0.151 0.147 0.185 0.332 0.331 0.483 7.264 7.186 16.765 10.799 26.217 10.799 9.569 0 19.178-3.686 26.437-11.022l407.383-411.091c14.523-14.633 14.41-38.203-0.184-52.691v0 0zM948.948 382.295z" p-id="2308"></path></svg>