<?xml version="1.0" standalone="no"?><!DOCTYPE svg PUBLIC "-//W3C//DTD SVG 1.1//EN" "http://www.w3.org/Graphics/SVG/1.1/DTD/svg11.dtd"><svg t="1493489552102" class="icon" style="" viewBox="0 0 1024 1024" version="1.1" xmlns="http://www.w3.org/2000/svg" p-id="1631" xmlns:xlink="http://www.w3.org/1999/xlink" width="90" height="90"><defs><style type="text/css"></style></defs><path d="M313.982 260c29.79 0 54.018-25.596 54.018-54s-54.018-126-54.018-126-53.982 97.596-53.982 126c0 28.404 24.192 54 53.982 54z" p-id="1632"></path><path d="M727.982 260c29.79 0 54.018-25.596 54.018-54s-54.018-126-54.018-126-53.982 97.596-53.982 126c0 28.404 24.192 54 53.982 54z" p-id="1633"></path><path d="M529.982 242c29.79 0 54.018-23.040 54.018-51.444s-54.018-128.556-54.018-128.556-53.982 100.152-53.982 128.556c0 28.404 24.192 51.444 53.982 51.444z" p-id="1634"></path><path d="M206 692.198c56.664 0 113.796-36.594 144-71.91 36.27 35.316 94.014 64.332 162 64.332 67.986 0 125.712-29.016 162-64.332 30.24 35.316 87.372 72 144 72 92.25 0 144-68.382 144-144 0-67.356-34.83-125.28-113.058-136.692-9.558-1.548-23.454-5.058-33.462-5.058l-33.48-2.538v-108h-108v108l-90 0.288v-108.288h-108v108l-108 0.288v-108.288l-108 0.288v108l-43.884 3.384c-10.332 0.972-22.752 3.672-32.274 5.274-78.246 11.358-121.842 67.95-121.842 135.342 0 75.582 51.66 143.91 144 143.91z" p-id="1635"></path><path d="M674.684 674c-36.396 37.080-95.49 61.452-162.684 61.452s-125.604-24.336-162-61.452c-32.634 36.81-90.306 61.452-155.61 61.452-62.298 0-99.126-27.414-132.39-61.452v144c0 81.018 51.642 144 144 144h612c92.268 0 137.808-61.884 144-144v-144c-33.264 34.074-70.128 61.452-132.462 61.452-65.286 0-122.274-24.642-154.854-61.452z" p-id="1636"></path></svg>