<?xml version="1.0" standalone="no"?><!DOCTYPE svg PUBLIC "-//W3C//DTD SVG 1.1//EN" "http://www.w3.org/Graphics/SVG/1.1/DTD/svg11.dtd"><svg t="1496212252684" class="icon" style="" viewBox="0 0 1025 1024" version="1.1" xmlns="http://www.w3.org/2000/svg" p-id="2082" xmlns:xlink="http://www.w3.org/1999/xlink" width="200.1953125" height="200"><defs><style type="text/css"></style></defs><path d="M286.969 256.502c24.873-0.176 44.033-19.336 44.473-44.648 0.176-13.974 0-27.862 0-41.924v0 0 0c0-14.239 0.176-28.388 0-42.715-0.175-11.602-3.691-22.060-11.953-30.762-13.096-13.447-31.114-17.403-48.779-10.898-17.315 6.416-28.301 21.357-28.388 39.99-0.263 28.388-0.263 56.953-0.176 85.43 0.088 25.664 19.951 45.615 44.825 45.528v0zM286.969 256.502z" p-id="2083"></path><path d="M737.497 256.502c24.873-0.176 44.033-19.336 44.56-44.648 0.176-13.974 0-27.862 0-41.924v-20.918c0-7.383 0.176-14.59 0-21.797-0.088-11.602-3.516-22.148-11.953-30.762-13.096-13.447-31.113-17.578-48.779-10.898-17.227 6.416-28.301 21.357-28.388 39.99-0.44 28.388-0.263 56.953-0.176 85.43 0 25.489 19.864 45.528 44.737 45.528v0zM737.497 256.502z" p-id="2084"></path><path d="M892.184 172.566c-25.576-4.395-52.119-2.724-79.278-3.779 0 19.161 0.263 36.474 0 53.614-0.967 50.888-55.459 86.221-103.184 66.885-29.356-11.865-47.637-38.497-47.724-70.137-0.176-16.172 0-32.52 0-48.691h-299.707c0 12.217 0.176 23.555 0 35.068-0.176 8.526 0.703 17.403-0.791 26.016-6.943 40.254-41.924 66.357-82.969 62.666-37.793-3.428-66.885-36.036-67.060-75.498-0.176-15.732 0-31.553 0-47.901-24.17 0-47.197-0.176-70.313 0.176-3.955 0-7.998 1.055-11.953 2.197-40.693 11.25-66.797 44.737-67.060 86.924-0.263 55.019-0.088 110.479-0.088 165.849 0 141.68-0.088 283.447 0.175 425.127 0.088 51.504 39.638 90.263 91.582 90.352h714.2c55.722 0 94.219-38.232 94.394-93.428 0.088-140.098 0.088-280.372 0.088-420.469 0-55.635 0.176-111.357-0.088-167.168-0.263-43.506-28.125-80.42-70.224-87.802v0zM902.907 815.926c0 8.174-2.021 17.227-5.977 24.434-5.185 9.404-15.117 12.832-26.367 12.832-85.693-0.176-171.474-0.176-257.168-0.176h-456.943c-23.291 0-35.068-11.602-35.068-34.717v-411.153h781.7v52.998c-0.088 118.74 0.088 237.217-0.176 355.781v0zM902.907 815.926z" p-id="2085"></path><path d="M362.907 650.34h118.3v120.234h-118.3v-120.234zM362.907 650.34z" p-id="2086"></path><path d="M182.818 650.34h118.213v120.498h-118.213v-120.498zM182.818 650.34z" p-id="2087"></path><path d="M363.17 486.424h118.213v120.322h-118.213v-120.322zM363.17 486.424z" p-id="2088"></path><path d="M723.346 649.637h118.037v120.586h-118.037v-120.586zM723.346 649.637z" p-id="2089"></path><path d="M543.17 650.076h118.301v120.234h-118.301v-120.234zM543.17 650.076z" p-id="2090"></path><path d="M723.346 486.16h118.213v120.322h-118.213v-120.322zM723.346 486.16z" p-id="2091"></path><path d="M543.083 486.599h118.301v120.234h-118.3v-120.234zM543.083 486.599z" p-id="2092"></path></svg>