<?xml version="1.0" standalone="no"?><!DOCTYPE svg PUBLIC "-//W3C//DTD SVG 1.1//EN" "http://www.w3.org/Graphics/SVG/1.1/DTD/svg11.dtd"><svg t="1493489665881" class="icon" style="" viewBox="0 0 1024 1024" version="1.1" xmlns="http://www.w3.org/2000/svg" p-id="2128" xmlns:xlink="http://www.w3.org/1999/xlink" width="90" height="90"><defs><style type="text/css"></style></defs><path d="M945.080 617.48c-33.84-121.32-106.2-215.1-219.42-278.82-12.96-7.2-26.82-13.32-40.14-20.16 2.52-2.88 4.86-4.86 7.2-7.020 23.22-21.42 44.28-46.26 55.080-75.42 5.22-14.040 6.66-20.34 10.26-33.48 6.84-41.58-1.080-66.78-26.64-87.84-34.56-28.26-73.98-31.68-115.56-15.12-2.88 1.080-4.68 1.98-7.74-0.54-53.46-48.6-139.32-49.14-193.14-1.080-2.52 2.16-4.32 2.7-7.56 1.44-21.78-9.54-44.64-11.7-68.040-7.2-44.46 8.82-81.18 45.18-74.7 94.86 5.58 43.020 23.040 80.46 52.92 112.5 6.12 6.48 12.6 12.96 19.26 19.62-1.62 0.72-3.24 1.62-4.86 2.16-153 67.32-256.32 213.48-268.38 379.8-3.42 45.9-0.54 91.62 11.34 136.62 18.9 70.92 83.88 124.2 161.82 124.020 183.78-0.36 367.56 0 551.34-0.36 59.040-0.18 104.4-25.56 137.34-72 16.74-23.58 24.48-50.4 29.16-78.48 10.44-64.98 8.1-129.78-9.54-193.5zM500.3 508.76l33.3 5.040c-4.86 14.76-9.9 28.44-14.76 40.86h132.48v30.96l-24.66 61.92c-3.24-0.9-8.64-1.98-16.020-3.78-6.66-1.62-11.88-2.88-16.020-3.78l22.32-54.36h-110.16c-9 21.42-19.44 42.12-30.96 61.92-9-5.76-19.44-11.16-30.96-16.020 26.1-41.4 44.64-82.26 55.44-122.76zM396.26 523.7c5.76 8.28 13.68 21.060 23.58 38.34 10.8 17.28 18.54 30.6 23.58 39.6l-32.22 16.020c-18.9-36.36-33.48-63.18-43.38-80.46l28.44-13.5zM360.44 766.16c21.42-43.74 39.24-83.7 53.28-120.060 9.9 4.86 20.52 9.9 32.22 14.76-2.52 5.76-6.66 15.3-12.42 28.44-18.9 43.74-32.94 74.16-42.12 91.62l-30.96-14.76zM638.9 800.9c-48.6-30.6-79.56-68.040-92.88-112.68-9.9 44.46-42.84 83.7-99 117.54-2.52-3.24-6.66-8.64-12.42-16.020-4.86-5.76-8.64-10.26-11.16-13.68 63.54-32.22 97.38-75.42 101.52-129.96 2.52-12.42 3.24-26.82 2.52-43.38h34.56c-0.9 9-1.26 18.18-1.26 27.18 7.38 64.26 41.22 111.42 101.52 141.12-9 10.080-16.92 19.98-23.4 29.88z" p-id="2129"></path></svg>