<?xml version="1.0" standalone="no"?><!DOCTYPE svg PUBLIC "-//W3C//DTD SVG 1.1//EN" "http://www.w3.org/Graphics/SVG/1.1/DTD/svg11.dtd"><svg t="1491754939467" class="icon" style="" viewBox="0 0 1024 1024" version="1.1" xmlns="http://www.w3.org/2000/svg" p-id="2193" xmlns:xlink="http://www.w3.org/1999/xlink" width="90" height="90"><defs><style type="text/css"></style></defs><path d="M75.08992 345.6512c0.96256-2.67776 1.92-5.3504 2.87744-8.0384 7.27552-21.82144 26.41408-36.55168 49.7664-38.08768 21.248-1.53088 42.50112 10.9056 52.44928 30.4384 10.1376 19.90656 7.2704 43.44832-7.47008 60.86656-1.72032 1.91488-3.44064 3.82464-5.36064 6.12864 41.15968 25.2672 82.11968 50.14528 122.89024 75.2128 15.49824 9.56928 31.01184 19.13856 46.51008 28.33408 8.8064 5.16608 15.68768 3.6352 20.48-4.97664C404.1216 410.15808 451.0208 324.59776 498.29888 238.27456c-20.48-10.33728-33.6896-26.22464-34.8416-49.7664-0.75776-16.4608 4.97664-30.62272 16.65536-42.112 23.15776-22.58944 61.24544-20.48 81.536 4.59264 23.36256 28.71296 14.92992 62.208-22.20032 87.47008 12.0576 22.20032 24.30976 44.41088 36.5568 66.6112 34.0736 62.01344 67.95264 123.84256 102.02112 185.856 7.8592 14.3616 12.83584 15.69792 26.8032 7.28064 52.62848-32.15872 105.28256-64.512 157.91104-96.66048 2.48832-1.54112 4.79232-3.072 7.6544-4.79232-10.9056-10.91072-17.80736-23.15776-18.56-38.28224-1.54112-28.32896 17.98656-53.21728 45.35296-57.80992 28.5184-4.97664 54.93248 11.29472 63.36 38.85568 0.57856 2.10432 1.536 4.39808 2.29888 6.50752l0 19.13856c-9.00096 28.70784-27.38176 45.35808-58.96192 45.54752-1.14176 3.26144-2.29888 6.50752-3.2512 9.75872-30.82752 105.66144-61.63968 211.51232-92.46208 317.16864-4.00896 13.7728-8.8064 17.41824-22.76864 17.41824L253.30176 755.05664c-14.94016 0-19.52768-3.456-23.552-17.41824-25.07264-85.74976-49.95584-171.68896-75.02848-257.44896-6.70208-23.14752-13.58848-46.32064-20.48-69.66784-23.54688 0-41.344-9.37984-52.44928-29.6704-2.67776-4.97664-4.39808-10.53184-6.5024-15.89248C75.08992 358.29248 75.08992 351.96928 75.08992 345.6512L75.08992 345.6512z" p-id="2194" fill="#ffffff"></path><path d="M518.77888 824.30464l248.64256 0c22.21056 0 39.81312 13.03552 42.30144 30.52032 2.49856 17.63328-11.47904 33.67936-32.9216 37.65248-3.06688 0.64-6.30784 0.78336-9.37984 0.78336L269.94688 893.2608c-18.944 0-34.83648-9.37472-40.38656-23.51104-5.73952-14.1568-0.384-30.19264 14.74048-38.29248 7.84384-4.14208 18.18112-6.9888 27.37152-6.9888C354.16576 823.99232 436.46976 824.30464 518.77888 824.30464L518.77888 824.30464z" p-id="2195" fill="#ffffff"></path></svg>