<?xml version="1.0" encoding="UTF-8"?>
<svg width="120px" height="121px" viewBox="0 0 120 121" version="1.1" xmlns="http://www.w3.org/2000/svg" xmlns:xlink="http://www.w3.org/1999/xlink">
    <!-- Generator: Sketch 44.1 (41455) - http://www.bohemiancoding.com/sketch -->
    <title>默认头像</title>
    <desc>Created with Sketch.</desc>
    <defs>
        <polygon id="path-1" points="41.2471258 0.695483607 41.2471258 93.1658088 0.511957163 93.1658088 0.511957163 0.695483607 41.2471258 0.695483607"></polygon>
    </defs>
    <g id="Welcome" stroke="none" stroke-width="1" fill="none" fill-rule="evenodd">
        <g id="Desktop" transform="translate(-681.000000, -124.000000)">
            <g id="默认头像" transform="translate(681.000000, 124.000000)">
                <rect id="Rectangle-2-Copy" fill="#EEEEEE" x="0" y="0" width="120" height="120"></rect>
                <g id="Group-4" transform="translate(20.000000, 23.000000)">
                    <path d="M28.6714461,1.34235735 C22.5844474,3.04401596 20.149648,8.99982109 19.3380482,10.276065 C18.5264484,11.552309 12.945888,11.552309 10.1052887,16.8699922 C7.26468934,22.1876753 6.35245115,30.483261 7.16405097,31.759505 C7.97565078,33.0357489 3.71475176,31.5467976 5.13505143,37.6523487 C5.73401209,40.2269582 1.88865217,40.0006376 0.874152404,42.4731476 C-0.140347364,44.9473592 0.468352497,49.1470526 1.68575222,50.1306113 C2.90315194,51.1158716 0.864413207,55.1573108 0.362844521,56.7534666 C-0.140347364,58.3479207 0.468352497,61.3258233 2.70025199,63.6656039 C3.91765171,65.1545552 -0.276696133,67.9197504 0.197278159,70.259531 C0.671252451,72.5993116 2.90315194,76.8534581 4.52635157,77.2788727 C6.1495512,77.7042874 3.91765171,84.5109218 6.96115101,86.2125804 C10.0046503,87.914239 13.2510496,87.7015317 15.0771492,88.1269464 C16.9032487,88.552361 16.7003488,90.2540196 18.7293483,91.5302636 C20.7583479,92.8065075 31.5802198,93.4446295 31.5802198,93.4446295 L39.4251436,93.4446295 L39.4251436,4.10755259 C39.4251436,4.10755259 34.7584447,-0.359301254 28.6714461,1.34235735" id="Fill-1" fill="#D76E27"></path>
                    <g id="Group-6" transform="translate(37.651720, 0.147453)">
                        <mask id="mask-2" fill="white">
                            <use xlink:href="#path-1"></use>
                        </mask>
                        <g id="Clip-5"></g>
                        <path d="M38.7074676,63.3867831 C40.9393671,61.0470026 41.548067,58.0691 41.0448751,56.4746459 C40.5433064,54.8784901 38.5045677,50.8370509 39.7219674,49.8517906 C40.9393671,48.8682319 41.548067,44.6685385 40.5335672,42.1943268 C39.5190675,39.7218169 36.1428122,40.0196071 36.2726682,37.373528 C36.5356265,32.0133034 33.4320688,32.7569282 34.2436687,31.4806842 C35.0552685,30.2044403 34.4968878,22.2287664 31.6562884,16.9110832 C28.8156891,11.5934001 22.8812713,11.2734883 22.0696714,9.99724432 C21.2580716,8.72100037 18.8232722,2.76519524 12.7362736,1.06353663 C6.64927496,-0.638121978 0.511957163,4.11290886 0.511957163,4.11290886 L1.98257603,93.1658088 L9.82749984,93.1658088 C9.82749984,93.1658088 20.6493718,92.5276868 22.6783713,91.2514428 C24.7073708,89.9751989 24.5044709,88.2735403 26.3305705,87.8481256 C28.15667,87.422711 31.4030693,87.6354183 34.4465686,85.9337597 C37.4900679,84.2321011 35.2581684,77.4254667 36.8813681,77.000052 C38.5045677,76.5746374 40.7364672,72.3204908 41.2104415,69.9807103 C41.6844158,67.6409297 37.4900679,64.8757344 38.7074676,63.3867831" id="Fill-4" fill="#D76E27" mask="url(#mask-2)"></path>
                    </g>
                    <path d="M17.2336978,25.282652 L15.8815725,41.7325857 C15.8815725,41.7325857 10.4714481,39.7450485 9.65984829,43.7167197 C8.84824847,47.6883909 12.0946477,52.2250127 14.5294472,53.360019 C14.5294472,53.360019 15.8815725,54.2108483 16.2873724,54.2108483 C16.4902723,55.8410373 18.5192719,64.9874523 33.6020428,72.3624407 L33.6020428,79.3817824 L33.2644173,84.8407033 L39.4179671,88.2440205 L45.0991658,87.7471362 L45.0991658,72.3624407 C45.0991658,72.3624407 58.0506756,68.0010897 63.1231745,53.5369915 C64.8486357,53.2187813 69.413073,51.5171227 69.413073,44.1778692 C69.413073,41.4126739 65.0515356,40.8817564 64.2399358,40.8817564 C64.5434742,38.860186 63.7318743,25.7438015 63.428336,25.282652 C63.1231745,24.8215025 37.4571419,12.2717703 37.4571419,12.2717703 L17.2336978,25.282652 Z" id="Fill-7" fill="#FDD4B0"></path>
                    <path d="M29.8444709,46.0071522 C29.8444709,48.1223138 28.2699672,49.835884 26.3269973,49.835884 C24.3856505,49.835884 22.8111469,48.1223138 22.8111469,46.0071522 C22.8111469,43.8919905 24.3856505,42.1784203 26.3269973,42.1784203 C28.2699672,42.1784203 29.8444709,43.8919905 29.8444709,46.0071522" id="Fill-9" fill="#3E1C0E"></path>
                    <path d="M57.1839923,46.0071522 C57.1839923,48.1223138 55.6094887,49.835884 53.6665188,49.835884 C51.725172,49.835884 50.1490452,48.1223138 50.1490452,46.0071522 C50.1490452,43.8919905 51.725172,42.1784203 53.6665188,42.1784203 C55.6094887,42.1784203 57.1839923,43.8919905 57.1839923,46.0071522" id="Fill-11" fill="#3E1C0E"></path>
                    <path d="M22.8111469,37.2982525 C22.8111469,37.2982525 26.0591693,31.9108013 31.4676705,37.2982525" id="Stroke-13" stroke="#BD7140"></path>
                    <path d="M49.3679623,38.9155845 C49.3679623,38.9155845 52.6159848,33.5264316 58.0261092,38.9155845" id="Stroke-15" stroke="#BD7140"></path>
                    <path d="M36.2790698,46.2198595 L36.2790698,56.8552258" id="Stroke-17" stroke="#C39774"></path>
                    <path d="M33.7463062,59.1524649 L46.4267417,59.1524649 C46.4267417,59.1524649 45.4122419,65.2154745 40.0362047,65.2154745 C34.6585444,65.2154745 33.7463062,59.1524649 33.7463062,59.1524649" id="Fill-19" fill="#FEFEFE"></path>
                    <path d="M33.7463062,59.1524649 L46.4267417,59.1524649 C46.4267417,59.1524649 45.4122419,65.2154745 40.0362047,65.2154745 C34.6585444,65.2154745 33.7463062,59.1524649 33.7463062,59.1524649 Z" id="Stroke-21" stroke="#C39774"></path>
                    <path d="M15.1132995,40.9651377 C15.1132995,40.9651377 18.0707692,44.1200128 18.5350043,37.7507046 C19.069037,30.4369759 23.248776,33.870923 24.9531356,31.9259272 C25.9611426,30.7773076 26.8814968,30.5782136 26.8814968,26.6065424 C26.8814968,23.1249489 29.3487602,26.7137469 34.8611461,26.6065424 C38.0133998,26.5469843 42.0649061,25.5089726 42.5713444,23.9128168 C43.0794059,22.3183627 43.1134931,29.0535275 51.5330295,29.4789421 C55.7939286,29.9043568 56.1997285,33.945796 58.3309896,34.9021281 C60.4606275,35.8601619 62.5918886,36.7109912 63.7070268,39.1579763 C64.8237881,41.6032597 65.6353879,42.1341772 68.1724489,42.0286743 C70.7078868,41.9214698 70.7078868,45.6446989 70.7078868,45.6446989 L71.9252865,50.4297629 C71.9252865,50.4297629 74.157186,48.1971868 74.4623475,47.2408547 C74.7658858,46.2828209 66.953426,27.1391615 66.953426,27.1391615 L53.4613907,13.5258927 L34.1858951,6.61375539 L20.5915982,14.376722 L14.605238,26.2883322 L9.53273914,36.2855765 L15.1132995,40.9651377 Z" id="Fill-23" fill="#D76E27"></path>
                    <g id="Group-27" transform="translate(20.617048, 78.551373)" fill="#F05467">
                        <path d="M12.7697346,0.456214673 L18.8567332,8.08304855 L24.2668576,0.514071065 C24.2668576,0.514071065 31.9445919,2.23274626 35.6974294,9.14658518 C39.4502669,16.0587224 37.7264289,18.7184149 37.7264289,18.7184149 L0.0876759293,18.7184149 C0.0876759293,18.7184149 -0.0129624477,13.0808199 3.63923672,7.6576339 C7.29143588,2.23274626 12.1366868,0.54470092 12.5424867,0.54470092" id="Fill-25"></path>
                    </g>
                </g>
            </g>
        </g>
    </g>
</svg>