<?xml version="1.0" standalone="no"?><!DOCTYPE svg PUBLIC "-//W3C//DTD SVG 1.1//EN" "http://www.w3.org/Graphics/SVG/1.1/DTD/svg11.dtd"><svg t="1490940701777" class="icon" style="" viewBox="0 0 1024 1024" version="1.1" xmlns="http://www.w3.org/2000/svg" p-id="2074" xmlns:xlink="http://www.w3.org/1999/xlink" width="90" height="90"><defs><style type="text/css"></style></defs><path d="M512.001 511.997c-96.77 0-177.515-69.862-194.468-161.801 11.3-7.953 18.688-21.081 18.688-35.947 0-24.271-19.674-43.951-43.944-43.951-24.271 0-43.944 19.68-43.944 43.951 0 17.587 10.342 32.757 25.267 39.775 19.027 114.411 118.681 201.919 238.408 201.919 119.722 0 219.377-87.508 238.402-201.919 14.927-7.017 25.263-22.188 25.263-39.775 0-24.271-19.668-43.951-43.939-43.951s-43.951 19.68-43.951 43.951c0 14.867 7.395 28 18.695 35.947-16.961 91.945-97.7 161.801-194.475 161.801v0zM819.615 116.492h-21.945c-0.007 0-0.018 0-0.029 0h-153.807c-0.007 0-0.018 0-0.029 0h-2.742c0.018 0.061 0.033 0.127 0.044 0.189-10.844 1.341-19.247 10.573-19.247 21.784 0 11.211 8.403 20.443 19.247 21.785-0.018 0.067-0.029 0.128-0.044 0.189h178.55c24.227 0 43.951 19.723 43.951 43.944v615.236c0 24.227-19.723 43.944-43.951 43.944h-615.23c-24.227 0-43.944-19.718-43.944-43.944v-615.236c0-24.221 19.718-43.944 43.944-43.944h156.577c-0.018-0.061-0.027-0.122-0.044-0.189 10.844-1.341 19.247-10.573 19.247-21.785 0-11.211-8.403-20.443-19.247-21.784 0.011-0.067 0.027-0.127 0.044-0.189h-2.74c-0.011 0-0.018 0-0.029 0h-153.808c-0.021 0-0.038 0-0.055 0-48.448 0.033-87.834 39.436-87.834 87.889v615.236c0 48.47 39.414 87.889 87.889 87.889h615.232c48.477 0 87.889-39.421 87.889-87.889v-615.236c0-48.475-39.413-87.889-87.889-87.889v0zM819.615 116.492z" p-id="2075"></path></svg>