<?xml version="1.0" standalone="no"?><!DOCTYPE svg PUBLIC "-//W3C//DTD SVG 1.1//EN" "http://www.w3.org/Graphics/SVG/1.1/DTD/svg11.dtd"><svg t="1490940709638" class="icon" style="" viewBox="0 0 1024 1024" version="1.1" xmlns="http://www.w3.org/2000/svg" p-id="2320" xmlns:xlink="http://www.w3.org/1999/xlink" width="90" height="90"><defs><style type="text/css"></style></defs><path d="M826.429 116.492h-628.937c-44.692 0-81 36.308-81 81v629.016c0 44.693 36.308 81 81 81h628.937c44.692 0 81-36.308 81-81v-629.094c0-44.693-36.308-80.921-81-80.921zM754.763 341.219l-1.661 0.87-0.237 1.898c-17.165 119.047-120.788 208.828-240.864 208.828s-223.7-89.781-240.943-208.749l-0.237-1.898-1.661-0.87c-11.945-7.119-19.063-19.063-19.063-32.273 0-20.883 16.928-37.81 37.89-37.81 20.883 0 37.81 16.928 37.81 37.81 0 10.995-4.984 21.278-14.080 28.792l-1.82 1.424 0.396 2.215c15.899 99.747 100.696 172.125 201.709 172.125s185.81-72.457 201.709-172.204l0.396-2.136-1.74-1.424c-9.175-7.594-14.080-17.797-14.080-28.792 0-20.883 16.928-37.81 37.81-37.81s37.89 16.928 37.89 37.81c-0.079 13.131-7.198 25.154-19.222 32.195z" p-id="2321"></path></svg>