<?xml version="1.0" standalone="no"?><!DOCTYPE svg PUBLIC "-//W3C//DTD SVG 1.1//EN" "http://www.w3.org/Graphics/SVG/1.1/DTD/svg11.dtd"><svg t="1490940727535" class="icon" style="" viewBox="0 0 1211 1024" version="1.1" xmlns="http://www.w3.org/2000/svg" p-id="2922" xmlns:xlink="http://www.w3.org/1999/xlink" width="106.435546875" height="90"><defs><style type="text/css"></style></defs><path d="M740.802 491.914l-15.915-6.323 12.713-10.537c50.812-41.237 79.811-102.841 79.811-169.004 0-118.563-93.532-215.018-208.421-215.018-114.884 0-208.382 96.458-208.382 215.018 0 66.163 29.134 127.767 79.944 169.004l12.998 10.538-14.27 6.322c-135.373 55.85-221.792 188.808-221.792 338.735v74.936c0 15.253 10.978 27.976 25.783 27.976l-1.057 0.315h653.405c14.805 0 29.212-13.038 29.212-28.291v-74.936c0-149.928-88.643-282.886-224.032-338.735z" p-id="2923"></path><path d="M956.294 477.986l-10.978-5.872 8.317-9.48c28.859-32.82 44.75-75.11 44.75-119.081 0-93.921-73.118-172.811-163.623-177.37 14.063 19.507 24.993 40.906 31.669 62.773 46.812 17.449 78.265 63.499 78.265 114.598 0 47.804-27.469 91.553-70.072 111.507-11.174 4.367-18.406 14.364-18.406 25.47 0 11.264 7.785 21.847 18.804 25.694l7.034 1.784c100.9 26.288 171.197 119.716 171.197 227.202v30.929h-33.771c3.021 15.248 4.779 37.134 5.231 55.611v0.3h55.728c14.805 0 26.845-13.632 26.845-28.88v-57.965c0-108.878-57.86-207.441-150.988-257.222z" p-id="2924"></path><path d="M335.493 507.975l6.203-1.514c11.735-4.051 19.58-14.47 19.58-25.927 0-11.269-7.25-21.11-18.985-25.714-42.22-19.788-69.506-63.458-69.506-111.258 0-51.097 31.433-97.153 77.297-113.617 7.574-22.704 18.312-43.789 32.523-63.75-90.467 4.62-163.535 83.497-163.535 177.366 0 43.946 15.891 86.236 44.75 119.076l8.317 9.486-10.984 5.866c-93.154 49.791-151.027 148.357-151.027 257.227v57.965c0 15.253 12.069 28.266 26.874 28.266l0.015 0.61h55.728c0.452-20.332 2.226-40.662 5.246-55.911h-33.83v-30.929c0-107.486 70.351-200.93 171.335-227.239z" p-id="2925"></path></svg>