<?xml version="1.0" standalone="no"?><!DOCTYPE svg PUBLIC "-//W3C//DTD SVG 1.1//EN" "http://www.w3.org/Graphics/SVG/1.1/DTD/svg11.dtd"><svg t="1490940731542" class="icon" style="" viewBox="0 0 1257 1024" version="1.1" xmlns="http://www.w3.org/2000/svg" p-id="3043" xmlns:xlink="http://www.w3.org/1999/xlink" width="110.478515625" height="90"><defs><style type="text/css"></style></defs><path d="M288.428 933.415c-15.339 0-27.813-12.428-27.813-27.703v-75.034c0-150.115 90.627-283.241 230.886-339.163l15.875-6.333-13.475-10.548c-52.647-41.289-82.849-102.97-82.849-169.22 0-118.712 96.829-215.29 215.86-215.29 119.031 0 215.861 96.577 215.861 215.29 0 66.249-30.2 127.931-82.849 169.22l-13.475 10.548 15.875 6.333c140.271 55.921 230.9 189.048 230.886 339.163v75.034c0 15.274-12.472 27.703-27.813 27.703l-676.971-0.001zM626.954 520.698c-171.322 0-310.701 139.058-310.701 309.98v47.337h621.319v-47.337c0-170.922-139.338-309.98-310.619-309.98v0zM626.914 145.517c-88.349 0-160.221 71.726-160.221 159.898s71.871 159.898 160.221 159.898c88.35 0 160.236-71.726 160.236-159.898 0-88.171-71.885-159.898-160.236-159.898v0zM137.989 820.854c-15.339 0-27.826-12.423-27.826-27.696v-58.038c0-109.005 59.947-207.698 156.461-257.549l11.361-5.876-8.616-9.493c-29.899-32.885-46.363-75.227-46.363-119.228 0-93.986 75.699-172.962 169.429-177.59-14.723 19.987-25.85 41.096-33.699 63.831-47.516 16.486-80.090 62.598-80.090 113.759 0 47.862 28.266 91.589 72.008 111.403 12.157 4.608 19.649 14.461 19.649 25.746 0 11.47-8.164 21.902-20.321 25.959l-6.504 1.516c-104.625 26.346-177.663 119.903-177.663 227.524v30.349h35.346c-3.129 18.244-4.967 36.851-5.434 55.385l-57.738 0.001zM1057.701 820.846c-0.467-18.499-2.291-37.106-5.421-55.378h35.346v-30.349c0-107.621-73.010-201.166-177.551-227.491l-7.463-1.785c-11.416-3.851-19.484-14.448-19.484-25.726 0-11.121 7.492-21.129 19.072-25.505 44.14-19.98 72.598-63.783 72.598-111.645 0-51.162-32.587-97.274-81.092-114.743-6.915-21.894-18.235-43.321-32.807-62.852 93.77 4.568 169.523 83.555 169.523 177.598 0 44.024-16.465 86.367-46.363 119.229l-8.617 9.493 11.374 5.876c96.487 49.845 156.435 148.531 156.435 257.549v58.038c0 15.267-12.472 27.689-27.813 27.689l-57.738 0.004z" p-id="3044"></path></svg>