<?xml version="1.0" standalone="no"?><!DOCTYPE svg PUBLIC "-//W3C//DTD SVG 1.1//EN" "http://www.w3.org/Graphics/SVG/1.1/DTD/svg11.dtd"><svg t="1490940705908" class="icon" style="" viewBox="0 0 1024 1024" version="1.1" xmlns="http://www.w3.org/2000/svg" p-id="2193" xmlns:xlink="http://www.w3.org/1999/xlink" width="90" height="90"><defs><style type="text/css"></style></defs><path d="M877.714 213.903v0z" p-id="2194"></path><path d="M877.714 240.885h-589.045c-14.901 0-26.981-12.081-26.981-26.981s12.081-26.981 26.981-26.981h589.045c14.901 0 26.981 12.081 26.981 26.981s-12.081 26.981-26.981 26.981z" p-id="2195"></path><path d="M876.815 515.346v0z" p-id="2196"></path><path d="M876.815 542.327h-589.045c-14.901 0-26.981-12.081-26.981-26.981s12.081-26.981 26.981-26.981h589.045c14.901 0 26.981 12.081 26.981 26.981s-12.081 26.981-26.981 26.981z" p-id="2197"></path><path d="M877.714 821.201v0z" p-id="2198"></path><path d="M877.714 848.184h-589.045c-14.901 0-26.981-12.081-26.981-26.981s12.081-26.981 26.981-26.981h589.045c14.901 0 26.981 12.081 26.981 26.981s-12.081 26.981-26.981 26.981z" p-id="2199"></path><path d="M119.932 821.201c0 24.908 20.192 45.101 45.101 45.101 24.908 0 45.101-20.192 45.101-45.101 0-24.908-20.192-45.101-45.101-45.101-24.908 0-45.101 20.192-45.101 45.101z" p-id="2200"></path><path d="M119.932 515.346c0 24.908 20.192 45.101 45.101 45.101 24.908 0 45.101-20.192 45.101-45.101 0-24.908-20.192-45.101-45.101-45.101-24.908 0-45.101 20.192-45.101 45.101z" p-id="2201"></path><path d="M119.932 213.903c0 24.908 20.192 45.101 45.101 45.101 24.908 0 45.101-20.192 45.101-45.101 0-24.908-20.192-45.101-45.101-45.101-24.908 0-45.101 20.192-45.101 45.101z" p-id="2202"></path></svg>