<?xml version="1.0" standalone="no"?><!DOCTYPE svg PUBLIC "-//W3C//DTD SVG 1.1//EN" "http://www.w3.org/Graphics/SVG/1.1/DTD/svg11.dtd"><svg t="1490940745705" class="icon" style="" viewBox="0 0 1024 1024" version="1.1" xmlns="http://www.w3.org/2000/svg" p-id="3520" xmlns:xlink="http://www.w3.org/1999/xlink" width="90" height="90"><defs><style type="text/css"></style></defs><path d="M511.69 62.562c-21.001 0-38.003 17.213-38.003 38.486v115.462c0 21.273 17.002 38.486 38.003 38.486 21.006 0 38.001-17.213 38.001-38.486v-115.462c0-21.274-16.995-38.486-38.001-38.486v0zM345.36 263.79l-73.251-88.435c-13.509-16.279-37.484-18.382-53.517-4.739-16.104 13.643-18.186 37.923-4.709 54.238l73.291 88.435c13.509 16.274 37.444 18.382 53.513 4.739 16.109-13.648 18.186-37.928 4.674-54.238v0zM249.729 477.65c3.637-20.974-10.167-40.929-30.837-44.614l-112.259-20.031c-20.675-3.685-40.378 10.257-44.051 31.196-3.639 20.933 10.167 40.888 30.877 44.574l112.219 20.070c20.708 3.681 40.378-10.301 44.051-31.196v0zM229.429 645.011l-98.749 57.733c-18.15 10.638-24.382 34.163-13.919 52.58 10.502 18.416 33.772 24.729 51.922 14.098l98.748-57.734c18.185-10.637 24.382-34.162 13.88-52.58-10.463-18.416-33.697-24.733-51.881-14.097v0zM420.698 777.577c-19.708-7.296-41.492 3.007-48.691 23.002l-39.003 108.47c-7.16 19.996 3.007 42.098 22.751 49.349 19.669 7.256 41.487-3.041 48.686-23.001l38.967-108.51c7.199-19.956-2.967-42.058-22.711-49.31v0zM651.378 800.578c-7.204-19.996-28.988-30.293-48.691-23.002-19.743 7.251-29.911 29.354-22.711 49.31l38.967 108.51c7.199 19.96 29.017 30.257 48.686 23.001 19.743-7.251 29.909-29.354 22.749-49.349l-39.002-108.47zM892.704 702.745l-98.749-57.733c-18.185-10.637-41.418-4.32-51.881 14.097-10.503 18.418-4.306 41.943 13.88 52.58l98.748 57.734c18.15 10.631 41.42 4.318 51.922-14.098 10.463-18.416 4.23-41.942-13.919-52.58v0zM960.802 444.201c-3.673-20.939-23.382-34.882-44.051-31.196l-112.257 20.031c-20.67 3.684-34.477 23.64-30.837 44.614 3.673 20.894 23.342 34.876 44.048 31.191l112.223-20.070c20.708-3.681 34.516-23.635 30.877-44.57v0zM804.788 170.617c-16.029-13.643-40.002-11.54-53.513 4.733l-73.257 88.44c-13.506 16.31-11.428 40.59 4.679 54.233 16.070 13.643 40.004 11.54 53.509-4.733l73.297-88.435c13.47-16.315 11.394-40.595-4.715-54.238v0z" p-id="3521"></path></svg>