<?xml version="1.0" standalone="no"?><!DOCTYPE svg PUBLIC "-//W3C//DTD SVG 1.1//EN" "http://www.w3.org/Graphics/SVG/1.1/DTD/svg11.dtd"><svg t="1494296659571" class="icon" style="" viewBox="0 0 1024 1024" version="1.1" xmlns="http://www.w3.org/2000/svg" p-id="1660" xmlns:xlink="http://www.w3.org/1999/xlink" width="90" height="90"><defs><style type="text/css"></style></defs><path d="M735.88 448.032c52.976 0 95.944-42.979 95.944-95.948s-42.967-95.945-95.944-95.945c-52.976 0-95.944 42.975-95.944 95.945 0 52.971 42.968 95.948 95.944 95.948v0zM903.789 128.204h-783.581c-31.183 0-55.97 25.387-55.97 56.57v654.443c0 31.193 24.786 56.578 55.97 56.578h783.581c31.184 0 55.973-25.385 55.973-56.578v-654.443c0.001-31.183-24.788-56.57-55.973-56.57v0zM697.695 523.395c-5.994-6.999-15.181-12.395-25.58-12.395-10.192 0-17.389 4.799-25.589 11.393l-37.385 31.583c-7.792 5.6-13.991 9.392-22.984 9.392-8.602 0-16.392-3.198-21.987-8.191-2.002-1.802-5.594-5.199-8.602-8.196l-107.542-116.339c-7.991-9.193-19.986-14.993-33.381-14.993s-25.784 6.596-33.58 15.592l-252.866 305.030v-520.716c1.999-13.591 12.594-23.388 26.187-23.388h715.025c13.786 0 24.983 10.198 25.784 23.989l0.595 520.516-198.096-213.278z" p-id="1661"></path></svg>