<?xml version="1.0" standalone="no"?><!DOCTYPE svg PUBLIC "-//W3C//DTD SVG 1.1//EN" "http://www.w3.org/Graphics/SVG/1.1/DTD/svg11.dtd"><svg t="1492442270566" class="icon" style="" viewBox="0 0 1024 1024" version="1.1" xmlns="http://www.w3.org/2000/svg" p-id="1383" xmlns:xlink="http://www.w3.org/1999/xlink" width="90" height="90"><defs><style type="text/css"></style></defs><path d="M722.498 314.51h-419.854c-15.469 0-28.565 13.184-28.565 28.74s13.096 28.74 28.565 28.74h419.854c15.469 0 28.565-13.184 28.565-28.74s-13.096-28.74-28.565-28.74z" p-id="1384"></path><path d="M721.356 476.316h-418.711c-15.469 0-28.565 13.184-28.565 28.74s13.096 28.74 28.565 28.74h419.854c15.469 0 28.565-13.184 28.565-28.74-1.23-16.787-14.326-28.74-29.707-28.74z" p-id="1385"></path><path d="M721.356 638.123h-418.711c-15.469 0-28.565 13.184-28.565 28.74s13.096 28.74 28.565 28.74h419.854c15.469 0 28.565-13.184 28.565-28.74-1.23-16.787-14.326-28.74-29.707-28.74z" p-id="1386"></path><path d="M415.672 160.174h195.029c22.588 0 41.661-22.763 41.661-49.043 0-26.367-19.072-49.131-42.803-49.131h-193.887c-23.818 0-42.803 22.763-42.803 49.043 0 26.367 18.984 49.131 42.803 49.131z" p-id="1387"></path><path d="M820.057 89.51h-55.898c-0.263 0-0.615 0-0.879 0s-0.44 0-0.703 0c-2.901 0-5.625 0.44-8.261 1.231-9.756 2.988-17.227 11.075-19.336 21.182 0 0.088 0 0.088 0 0.176-0.088 0.528-0.176 1.143-0.263 1.67-0.088 0.352-0.088 0.791-0.175 1.143 0 0.263-0.088 0.528-0.088 0.879 0 0.528-0.088 1.143-0.088 1.67 0 0.088 0 0.088 0 0.176v0c0 6.065 1.934 11.69 5.273 16.348 6.416 6.768 15.469 11.513 23.906 11.777 0 0 0 0-0.088 0 0.176 0 0.352 0 0.615 0h55.898c33.31 0 55.898 22.763 55.898 56.25v647.49c0 33.487-22.588 56.25-55.898 56.25h-601.7c-33.31 0-70.137-22.763-70.137-56.25v-647.49c0-33.487 22.588-56.25 55.898-56.25h70.137c0.967 0 1.934-0.088 2.813-0.176 15.205-0.352 27.422-12.744 27.422-28.037 0-15.469-12.568-28.037-28.037-28.037-0.352 0-0.615 0-0.967 0-0.44 0-0.791 0-1.23 0h-70.137c-78.487 0-111.797 49.043-111.797 113.731v640.283c0 69.434 41.66 118.477 117.773 118.477h604.161c76.114 0 117.773-40.693 117.773-118.477v-640.283c-0.088-64.688-39.375-113.731-111.885-113.731z" p-id="1388"></path></svg>