<?xml version="1.0" standalone="no"?><!DOCTYPE svg PUBLIC "-//W3C//DTD SVG 1.1//EN" "http://www.w3.org/Graphics/SVG/1.1/DTD/svg11.dtd"><svg t="1490940735175" class="icon" style="" viewBox="0 0 1024 1024" version="1.1" xmlns="http://www.w3.org/2000/svg" p-id="3162" xmlns:xlink="http://www.w3.org/1999/xlink" width="90" height="90"><defs><style type="text/css"></style></defs><path d="M675.853 582.418c73.4-51.85 121.338-137.348 121.338-234.049 0-158.163-128.209-286.371-286.364-286.371-158.153 0-286.361 128.209-286.361 286.371 0 100.068 51.34 188.133 129.106 239.334-145.273 63.367-247.689 206.64-251.705 374.295h40.92c4.321-162.743 111.392-299.876 258.712-348.898 33.69 13.929 70.609 21.633 109.331 21.633 42.052 0 81.987-9.066 117.958-25.347 153.385 45.471 266.103 185.544 270.539 352.612h40.924c-4.133-172.493-112.43-319.179-264.396-379.581v0zM510.826 593.816c-135.557 0-245.453-109.892-245.453-245.445 0-135.563 109.896-245.452 245.453-245.452 135.56 0 245.457 109.888 245.457 245.452 0 135.555-109.898 245.445-245.457 245.445v0z" p-id="3163"></path></svg>