<?xml version="1.0" standalone="no"?><!DOCTYPE svg PUBLIC "-//W3C//DTD SVG 1.1//EN" "http://www.w3.org/Graphics/SVG/1.1/DTD/svg11.dtd"><svg t="1493489628214" class="icon" style="" viewBox="0 0 1024 1024" version="1.1" xmlns="http://www.w3.org/2000/svg" p-id="1758" xmlns:xlink="http://www.w3.org/1999/xlink" width="90" height="90"><defs><style type="text/css"></style></defs><path d="M755.406 626.961c-29.257-22.254-61.555-40.708-96.23-54.49 71.582-50.563 118.33-133.825 118.33-228.129 0-154.245-125.032-279.215-279.27-279.215-154.235 0-279.266 125.063-279.266 279.305 0 97.588 50.068 183.243 125.909 233.178-141.675 61.796-241.556 204.086-245.468 364.795h514.957c-19.865-31.942-31.37-69.622-31.37-110.002 0-102.864 74.461-188.281 172.409-205.442z" p-id="1759"></path><path d="M826.29 802.658v-97.823h-55.898v97.823h-97.823v48.911h97.823v104.811h55.898v-104.811h97.823v-48.911h-97.823z" p-id="1760"></path></svg>