<?xml version="1.0" standalone="no"?><!DOCTYPE svg PUBLIC "-//W3C//DTD SVG 1.1//EN" "http://www.w3.org/Graphics/SVG/1.1/DTD/svg11.dtd"><svg t="1496212411993" class="icon" style="" viewBox="0 0 1024 1024" version="1.1" xmlns="http://www.w3.org/2000/svg" p-id="2199" xmlns:xlink="http://www.w3.org/1999/xlink" width="200" height="200"><defs><style type="text/css"></style></defs><path d="M315.7 864.1V419.7c0-17.7-14-31.4-30.8-31.4h-92.4c-16.8 0-30.8 15-30.8 31.4v444.4h154z m195.9 0V228.8c0-17.7-14-32.7-30.8-32.7h-92.4c-16.8 0-30.8 15-30.8 32.7v635.3h154z m195.9 0V583.3c0-17.7-14-32.7-30.8-32.7h-92.3c-16.8 0-30.8 15-30.8 32.7v280.8h153.9z m195.9 0V419.7c0-17.7-14-31.4-30.8-31.4h-92.3c-16.8 0-30.8 15-30.8 31.4v444.4h153.9z m27.9 40.9H119.8V182.5c0-15-12.6-27.3-28-27.3s-28 12.3-28 27.3v777.1h867.5c15.4 0 28-12.3 28-27.3s-12.6-27.3-28-27.3z" p-id="2200"></path></svg>