<?xml version="1.0" standalone="no"?><!DOCTYPE svg PUBLIC "-//W3C//DTD SVG 1.1//EN" "http://www.w3.org/Graphics/SVG/1.1/DTD/svg11.dtd"><svg t="1493272546531" class="icon" style="" viewBox="0 0 1024 1024" version="1.1" xmlns="http://www.w3.org/2000/svg" p-id="1496" xmlns:xlink="http://www.w3.org/1999/xlink" width="200" height="200"><defs><style type="text/css"></style></defs><path d="M657.92 105.472H221.696c-67.584 0-58.368 32.768-58.368 87.04v639.488c0 72.192-9.216 87.04 58.368 87.04h552.448c79.872 0 87.04-17.92 87.04-87.04V334.336c-14.848-14.336-203.264-228.864-203.264-228.864z m20.48 545.28h-332.8c-12.288 0-22.528-10.24-22.528-22.528 0-12.288 10.24-22.528 22.528-22.528h333.312c12.288 0 22.528 10.24 22.528 22.528-0.512 12.288-10.752 22.528-23.04 22.528z m0-145.408h-332.8c-12.288 0-22.528-10.24-22.528-22.528s10.24-22.528 22.528-22.528h333.312c12.288 0 22.528 10.24 22.528 22.528-0.512 12.288-10.752 22.528-23.04 22.528z m51.712-148.48c-65.536 0-93.696-28.672-93.696-93.696 0 0 0.512-44.032 0-124.416l187.392 218.112h-93.696z" p-id="1497" fill="#ffffff"></path></svg>