<?xml version="1.0" standalone="no"?><!DOCTYPE svg PUBLIC "-//W3C//DTD SVG 1.1//EN" "http://www.w3.org/Graphics/SVG/1.1/DTD/svg11.dtd"><svg t="1491755011676" class="icon" style="" viewBox="0 0 1024 1024" version="1.1" xmlns="http://www.w3.org/2000/svg" p-id="2363" xmlns:xlink="http://www.w3.org/1999/xlink" width="90" height="90"><defs><style type="text/css"></style></defs><path d="M512 89.579c-230.923 0-422.421 191.498-422.421 422.421s191.498 422.421 422.421 422.421 422.421-191.498 422.421-422.421-191.498-422.421-422.421-422.421zM602.116 602.116c-56.323 56.323-90.116 140.807-90.116 140.807s-39.426-78.852-95.748-135.175c-61.955-61.955-140.807-101.382-140.807-101.382s78.852-28.162 135.175-84.485c61.955-61.955 95.748-146.44 95.748-146.44s33.794 84.485 90.116 140.807 140.807 90.116 140.807 90.116-78.852 39.426-135.175 95.748z" p-id="2364" fill="#ffffff"></path></svg>