<?xml version="1.0" standalone="no"?><!DOCTYPE svg PUBLIC "-//W3C//DTD SVG 1.1//EN" "http://www.w3.org/Graphics/SVG/1.1/DTD/svg11.dtd"><svg t="1493489644141" class="icon" style="" viewBox="0 0 1257 1024" version="1.1" xmlns="http://www.w3.org/2000/svg" p-id="1882" xmlns:xlink="http://www.w3.org/1999/xlink" width="110.478515625" height="90"><defs><style type="text/css"></style></defs><path d="M1056.78 680.518l118.072-421.506h-839.633l139.94 421.506h581.622zM1062.901 736.717h-643.716c0 0-120.043-381.958-195.918-646.301-9.593-33.452-29.163-28.102-55.973-28.102h-27.989c-31.101 0-55.973 0.11-55.973 28.102 0 25.273 27.001 28.102 55.973 28.102h27.989c27.001 0 223.901 674.403 223.901 674.403h671.705c38.511 0 35.939-56.202 0-56.202v0zM1000.802 849.117c-30.91 0-55.973 25.163-55.973 56.202 0 31.007 25.062 56.23 55.973 56.23 30.916 0 55.978-25.223 55.978-56.23 0-31.040-25.062-56.202-55.978-56.202v0zM441.047 849.117c-30.91 0-55.973 25.163-55.973 56.202 0 31.007 25.062 56.23 55.973 56.23 30.916 0 55.978-25.223 55.978-56.23 0-31.040-25.062-56.202-55.978-56.202v0z" p-id="1883"></path></svg>