<?xml version="1.0" standalone="no"?><!DOCTYPE svg PUBLIC "-//W3C//DTD SVG 1.1//EN" "http://www.w3.org/Graphics/SVG/1.1/DTD/svg11.dtd"><svg t="1490940752368" class="icon" style="" viewBox="0 0 1062 1024" version="1.1" xmlns="http://www.w3.org/2000/svg" p-id="3758" xmlns:xlink="http://www.w3.org/1999/xlink" width="93.33984375" height="90"><defs><style type="text/css"></style></defs><path d="M715.357 464.573c0 29.672 24.155 53.728 53.949 53.728 29.794 0 53.949-24.055 53.949-53.728 0-29.672-24.155-53.728-53.949-53.728-29.794 0-53.949 24.055-53.949 53.728v0zM476.516 464.573c0 29.672 24.155 53.728 53.949 53.728s53.949-24.055 53.949-53.728c0-29.672-24.155-53.728-53.949-53.728-29.794 0-53.949 24.055-53.949 53.728v0zM237.681 464.573c0 29.672 24.155 53.728 53.949 53.728s53.949-24.055 53.949-53.728c0-29.672-24.155-53.728-53.949-53.728-29.794 0-53.949 24.055-53.949 53.728v0zM528.667 829.86c-50.749 0-99.424-7.582-144.559-21.48l-36.544 30.331c0.71 0.253 1.417 0.505 2.122 0.758l-63.847 45.13-0.651-82.842v-37.102c-110.384-65.724-182.611-174.92-182.611-298.52 0-200.889 190.774-363.728 426.091-363.728 235.313 0 426.086 162.839 426.086 363.728 0 200.884-190.774 363.723-426.086 363.723v0zM528.667 62c-257.726 0-466.667 180.932-466.667 404.133 0 130.67 71.618 246.841 182.701 320.716l-0.095 170.605 152.542-103.463c41.713 10.596 85.849 16.28 131.519 16.28 257.726 0 466.667-180.932 466.667-404.137 0-223.201-208.941-404.133-466.667-404.133v0z" p-id="3759"></path></svg>