<?xml version="1.0" standalone="no"?><!DOCTYPE svg PUBLIC "-//W3C//DTD SVG 1.1//EN" "http://www.w3.org/Graphics/SVG/1.1/DTD/svg11.dtd"><svg t="1490940738401" class="icon" style="" viewBox="0 0 1068 1024" version="1.1" xmlns="http://www.w3.org/2000/svg" p-id="3281" xmlns:xlink="http://www.w3.org/1999/xlink" width="93.8671875" height="90"><defs><style type="text/css"></style></defs><path d="M238.57 466.608c0-29.822 24.278-54 54.221-54 29.946 0 54.221 24.178 54.221 54 0 29.822-24.278 54-54.221 54-29.946 0-54.221-24.178-54.221-54M772.882 412.608c29.946 0 54.221 24.178 54.221 54s-24.278 54-54.221 54c-29.946 0-54.221-24.178-54.221-54 0-29.822 24.278-54 54.221-54M478.612 466.608c0-29.822 24.277-54 54.221-54 29.946 0 54.221 24.178 54.221 54 0 29.822-24.278 54-54.221 54-29.946 0-54.221-24.178-54.221-54M531.027 62c-259.029 0-469.027 181.847-469.027 406.175 0 131.331 71.98 248.089 183.624 322.337l-0.096 171.468 153.313-103.986c41.924 10.649 86.283 16.361 132.184 16.361 259.029 0 469.027-181.847 469.027-406.18 0-224.33-209.997-406.175-469.027-406.175z" p-id="3282"></path></svg>