<?xml version="1.0" standalone="no"?><!DOCTYPE svg PUBLIC "-//W3C//DTD SVG 1.1//EN" "http://www.w3.org/Graphics/SVG/1.1/DTD/svg11.dtd"><svg t="1493490378477" class="icon" style="" viewBox="0 0 1024 1024" version="1.1" xmlns="http://www.w3.org/2000/svg" p-id="2374" xmlns:xlink="http://www.w3.org/1999/xlink" width="90" height="90"><defs><style type="text/css"></style></defs><path d="M951.698 402.288c-7.646-22.452-27.307-38.836-51.094-42.477l-230.468-34.71-100.246-211.293c-10.437-22.209-33.132-36.287-57.89-36.287s-47.331 14.199-57.89 36.287l-100.246 211.293-230.59 34.831c-23.666 3.519-43.327 20.025-50.973 42.477-7.646 22.574-1.821 47.331 14.928 64.202l168.938 171.364-39.2 237.507c-4.005 23.908 6.19 47.938 26.214 62.017 11.044 7.646 23.908 11.53 36.895 11.53 10.559 0 21.238-2.67 30.947-7.888l200.977-109.955 200.977 109.955c9.588 5.219 20.268 7.888 30.947 7.888 12.986 0 25.851-3.884 36.895-11.53 20.025-14.078 30.22-37.987 26.214-62.017l-39.2-237.507 168.938-171.364c16.748-16.991 22.574-41.748 14.928-64.322z" p-id="2375"></path></svg>