<?xml version="1.0" standalone="no"?><!DOCTYPE svg PUBLIC "-//W3C//DTD SVG 1.1//EN" "http://www.w3.org/Graphics/SVG/1.1/DTD/svg11.dtd"><svg t="1490940690246" class="icon" style="" viewBox="0 0 1024 1024" version="1.1" xmlns="http://www.w3.org/2000/svg" p-id="1713" xmlns:xlink="http://www.w3.org/1999/xlink" width="90" height="90"><defs><style type="text/css"></style></defs><path d="" p-id="1714"></path><path d="" p-id="1715"></path><path d="M514.273 107.044c9.321 0 17.796 5.161 21.586 13.175l100.029 210.82c5.768 12.182 17.134 20.666 30.301 22.662l230.122 34.75c8.676 1.295 16.053 7.313 18.764 15.222 2.586 7.674 0.604 16.077-5.222 21.98l-168.635 170.971c-9.209 9.331-13.39 22.594-11.245 35.61l39.104 237.131c1.377 8.254-2.214 16.484-9.162 21.34-4.199 2.909-9.103 4.444-14.191 4.444-4.135 0-8.259-1.038-11.772-2.946l-200.623-109.696c-5.952-3.247-12.502-4.884-19.058-4.884-6.56 0-13.113 1.638-19.063 4.884l-200.408 109.59c-3.671 1.997-7.828 3.056-11.994 3.056-5.001 0-10.031-1.581-13.952-4.286-7.163-5.020-10.769-13.269-9.4-21.545l39.113-237.091c2.14-13.010-2.040-26.279-11.245-35.606l-168.656-171.034c-5.788-5.86-7.775-14.244-5.197-21.835 2.707-7.99 10.082-14.009 18.819-15.304l230.087-34.757c13.183-1.99 24.536-10.483 30.301-22.657l99.987-210.78c3.83-8.033 12.307-13.212 21.612-13.212M514.273 66.235c-24.75 0-47.258 14.128-57.802 36.266l-100.005 210.823-230.088 34.756c-23.651 3.528-43.292 19.984-50.909 42.339-7.594 22.48-1.864 47.228 14.856 64.102l168.602 170.978-39.109 237.085c-3.97 23.913 6.214 47.845 26.198 61.857 10.991 7.612 23.88 11.513 36.791 11.513 10.583 0 21.238-2.611 30.899-7.832l200.567-109.694 200.626 109.694c9.622 5.221 20.256 7.832 30.829 7.832 12.939 0 25.815-3.901 36.82-11.513 19.985-14.012 30.15-37.942 26.185-61.857l-39.114-237.085 168.64-170.978c16.702-16.881 22.436-41.624 14.834-64.102-7.631-22.356-27.28-38.811-50.943-42.343l-230.048-34.751-100.035-210.823c-10.478-22.138-33.024-36.265-57.794-36.265v0 0 0zM514.273 66.235z" p-id="1716"></path></svg>