<?xml version="1.0" standalone="no"?><!DOCTYPE svg PUBLIC "-//W3C//DTD SVG 1.1//EN" "http://www.w3.org/Graphics/SVG/1.1/DTD/svg11.dtd"><svg t="1492355709037" class="icon" style="" viewBox="0 0 1024 1024" version="1.1" xmlns="http://www.w3.org/2000/svg" p-id="2036" xmlns:xlink="http://www.w3.org/1999/xlink" width="90" height="90"><defs><style type="text/css"></style></defs><path d="M525.894 153.153l-224.831 144.394h-112.162c-62.325 0-112.838 49.893-112.838 112.387v225.225c0 62.1 49.895 112.388 112.838 112.388h112.162l224.831 144.281c31.781 13.782 56.419-0.956 56.419-32.231v-674.212c0-31.331-25.257-45.675-56.419-32.231zM715.344 334.617c-10.575-11.363-28.406-11.981-39.712-1.35-11.363 10.631-11.925 28.406-1.35 39.769 5.23 5.625 14.175 18.055 23.401 36.844 15.75 32.063 25.255 69.694 25.255 112.669s-9.506 80.663-25.255 112.669c-9.223 18.788-18.169 31.219-23.401 36.844-10.631 11.363-10.013 29.137 1.35 39.769 11.363 10.631 29.137 10.013 39.769-1.35 8.831-9.45 20.981-26.326 32.795-50.457 19.406-39.488 30.994-85.5 30.994-137.531s-11.588-98.044-30.994-137.531c-11.869-24.019-24.019-40.95-32.85-50.343zM887.806 299.797c-22.725-38.475-45.675-65.137-61.762-79.481-11.588-10.35-29.364-9.337-39.713 2.306s-9.337 29.362 2.306 39.713c2.644 2.362 7.931 7.65 15.019 15.865 12.15 14.063 24.3 30.825 35.719 50.175 32.681 55.463 52.313 120.319 52.313 194.175s-19.631 138.713-52.368 194.231c-11.419 19.35-23.625 36.113-35.719 50.175-7.087 8.212-12.375 13.5-15.019 15.865-11.587 10.35-12.601 28.125-2.306 39.712s28.125 12.601 39.713 2.306c16.089-14.343 39.037-40.95 61.762-79.481 37.575-63.731 60.131-138.262 60.131-222.806 0.057-84.487-22.5-159.020-60.075-222.75z" p-id="2037"></path></svg>