<?xml version="1.0" standalone="no"?><!DOCTYPE svg PUBLIC "-//W3C//DTD SVG 1.1//EN" "http://www.w3.org/Graphics/SVG/1.1/DTD/svg11.dtd"><svg t="1492352562866" class="icon" style="" viewBox="0 0 1252 1024" version="1.1" xmlns="http://www.w3.org/2000/svg" p-id="1694" xmlns:xlink="http://www.w3.org/1999/xlink" width="110.0390625" height="90"><defs><style type="text/css"></style></defs><path d="M1041.517 117.336h-845.856c-33.369 0-60.419 27.877-60.419 62.269v87.172h966.696v-87.172c0-34.386-27.050-62.269-60.42-62.269z" p-id="1695" fill="#ffffff"></path><path d="M844.626 556.656c-0.995-16.485-7.605-35.317-48.989-36.222h-59.444v75.833h59.7c41.955-0.882 48.192-21.546 48.734-39.608z" p-id="1696" fill="#ffffff"></path><path d="M394.332 473.361l75.878 200.928 74.665-200.928h54.144l-107.434 270.526h-43.965l-106.108-270.526h52.819zM603.58 473.361h48.592v270.526h-48.592v-270.526zM687.573 473.361l116.15 0.016c54.66 2.743 86.448 31.499 91.858 83.161l0.086 0.688v0.694c-0.653 38.336-17.604 84.289-94.76 85.403h-64.715v100.566h-48.619v-270.526zM135.241 845.246c0 34.389 27.050 62.262 60.42 62.262h845.856c33.374 0 60.42-27.874 60.42-62.262v-535.506h-966.696v535.506z" p-id="1697" fill="#ffffff"></path></svg>